<mxfile host="app.diagrams.net" agent="Mozilla/5.0 (Windows NT 10.0; Win64; x64) AppleWebKit/537.36 (KHTML, like Gecko) Chrome/135.0.0.0 Safari/537.36" version="26.2.14">
  <diagram name="PÃ¡gina-1" id="X1SpnwkJbREcBt-_wnwb">
    <mxGraphModel dx="142" dy="1340" grid="1" gridSize="10" guides="0" tooltips="1" connect="1" arrows="1" fold="1" page="1" pageScale="1" pageWidth="827" pageHeight="1169" math="0" shadow="0">
      <root>
        <mxCell id="0" />
        <mxCell id="1" parent="0" />
        <mxCell id="UnAOihgvKj4AW0j9NJzb-24" value="" style="html=1;verticalLabelPosition=bottom;labelBackgroundColor=#ffffff;verticalAlign=top;shadow=0;dashed=0;strokeWidth=2;shape=mxgraph.ios7.misc.circle;strokeColor=#00FF00;fillColor=none;" parent="1" vertex="1">
          <mxGeometry x="330.79999999999995" y="-1000" width="45" height="45" as="geometry" />
        </mxCell>
        <mxCell id="UnAOihgvKj4AW0j9NJzb-28" style="edgeStyle=orthogonalEdgeStyle;rounded=0;orthogonalLoop=1;jettySize=auto;html=1;" parent="1" source="UnAOihgvKj4AW0j9NJzb-23" target="UnAOihgvKj4AW0j9NJzb-9" edge="1">
          <mxGeometry relative="1" as="geometry">
            <Array as="points">
              <mxPoint x="420" y="-851" />
              <mxPoint x="420" y="-900" />
            </Array>
          </mxGeometry>
        </mxCell>
        <mxCell id="UnAOihgvKj4AW0j9NJzb-23" value="" style="html=1;verticalLabelPosition=bottom;labelBackgroundColor=#ffffff;verticalAlign=top;shadow=0;dashed=0;strokeWidth=2;shape=mxgraph.ios7.misc.circle;strokeColor=#00FF00;fillColor=none;" parent="1" vertex="1">
          <mxGeometry x="440" y="-871.1999999999999" width="40.75" height="40.75" as="geometry" />
        </mxCell>
        <mxCell id="UnAOihgvKj4AW0j9NJzb-18" value="" style="html=1;verticalLabelPosition=bottom;labelBackgroundColor=#ffffff;verticalAlign=top;shadow=0;dashed=0;strokeWidth=2;shape=mxgraph.ios7.misc.circle;strokeColor=#00FF00;fillColor=none;" parent="1" vertex="1">
          <mxGeometry x="440" y="-919.62" width="40.75" height="40.75" as="geometry" />
        </mxCell>
        <mxCell id="UnAOihgvKj4AW0j9NJzb-4" value="" style="image;points=[];aspect=fixed;html=1;align=center;shadow=0;dashed=0;image=img/lib/allied_telesis/computer_and_terminals/POS_Printer.svg;" parent="1" vertex="1">
          <mxGeometry x="448.89" y="-861.65" width="22.96" height="20" as="geometry" />
        </mxCell>
        <mxCell id="UnAOihgvKj4AW0j9NJzb-6" value="" style="image;points=[];aspect=fixed;html=1;align=center;shadow=0;dashed=0;image=img/lib/allied_telesis/computer_and_terminals/Personal_Computer.svg;" parent="1" vertex="1">
          <mxGeometry x="449.31" y="-914.25" width="22.13" height="30" as="geometry" />
        </mxCell>
        <mxCell id="UnAOihgvKj4AW0j9NJzb-8" value="" style="image;points=[];aspect=fixed;html=1;align=center;shadow=0;dashed=0;image=img/lib/allied_telesis/computer_and_terminals/Server_Desktop.svg;" parent="1" vertex="1">
          <mxGeometry x="337.53" y="-997.5" width="31.55" height="40" as="geometry" />
        </mxCell>
        <mxCell id="UnAOihgvKj4AW0j9NJzb-9" value="" style="sketch=0;points=[[0.5,0,0],[1,0.5,0],[0.5,1,0],[0,0.5,0],[0.145,0.145,0],[0.8555,0.145,0],[0.855,0.8555,0],[0.145,0.855,0]];verticalLabelPosition=bottom;html=1;verticalAlign=top;aspect=fixed;align=center;pointerEvents=1;shape=mxgraph.cisco19.rect;prIcon=router;fillColor=none;strokeColor=#CEC513;strokeWidth=2;" parent="1" vertex="1">
          <mxGeometry x="360" y="-919.62" width="40" height="40" as="geometry" />
        </mxCell>
        <mxCell id="UnAOihgvKj4AW0j9NJzb-19" value="" style="html=1;verticalLabelPosition=bottom;labelBackgroundColor=#ffffff;verticalAlign=top;shadow=0;dashed=0;strokeWidth=2;shape=mxgraph.ios7.misc.circle;strokeColor=#00FF00;fillColor=none;" parent="1" vertex="1">
          <mxGeometry x="279.25" y="-919.62" width="40.75" height="40.75" as="geometry" />
        </mxCell>
        <mxCell id="UnAOihgvKj4AW0j9NJzb-20" value="" style="image;points=[];aspect=fixed;html=1;align=center;shadow=0;dashed=0;image=img/lib/allied_telesis/computer_and_terminals/Personal_Computer.svg;" parent="1" vertex="1">
          <mxGeometry x="288.56" y="-914.25" width="22.13" height="30" as="geometry" />
        </mxCell>
        <mxCell id="UnAOihgvKj4AW0j9NJzb-21" value="" style="html=1;verticalLabelPosition=bottom;labelBackgroundColor=#ffffff;verticalAlign=top;shadow=0;dashed=0;strokeWidth=2;shape=mxgraph.ios7.misc.circle;strokeColor=#00FF00;fillColor=none;" parent="1" vertex="1">
          <mxGeometry x="279.25" y="-871.1999999999999" width="40.75" height="40.75" as="geometry" />
        </mxCell>
        <mxCell id="UnAOihgvKj4AW0j9NJzb-22" value="" style="image;points=[];aspect=fixed;html=1;align=center;shadow=0;dashed=0;image=img/lib/allied_telesis/computer_and_terminals/Personal_Computer.svg;" parent="1" vertex="1">
          <mxGeometry x="288.56" y="-865.83" width="22.13" height="30" as="geometry" />
        </mxCell>
        <mxCell id="UnAOihgvKj4AW0j9NJzb-26" style="edgeStyle=orthogonalEdgeStyle;rounded=0;orthogonalLoop=1;jettySize=auto;html=1;entryX=0.8555;entryY=0.145;entryDx=0;entryDy=0;entryPerimeter=0;" parent="1" source="UnAOihgvKj4AW0j9NJzb-18" target="UnAOihgvKj4AW0j9NJzb-9" edge="1">
          <mxGeometry relative="1" as="geometry">
            <Array as="points">
              <mxPoint x="430" y="-899" />
              <mxPoint x="430" y="-914" />
            </Array>
          </mxGeometry>
        </mxCell>
        <mxCell id="UnAOihgvKj4AW0j9NJzb-27" style="edgeStyle=orthogonalEdgeStyle;rounded=0;orthogonalLoop=1;jettySize=auto;html=1;exitX=1;exitY=0.5;exitDx=0;exitDy=0;exitPerimeter=0;entryX=0.145;entryY=0.145;entryDx=0;entryDy=0;entryPerimeter=0;" parent="1" source="UnAOihgvKj4AW0j9NJzb-19" target="UnAOihgvKj4AW0j9NJzb-9" edge="1">
          <mxGeometry relative="1" as="geometry">
            <Array as="points">
              <mxPoint x="330" y="-899" />
              <mxPoint x="330" y="-914" />
            </Array>
          </mxGeometry>
        </mxCell>
        <mxCell id="UnAOihgvKj4AW0j9NJzb-30" style="edgeStyle=orthogonalEdgeStyle;rounded=0;orthogonalLoop=1;jettySize=auto;html=1;entryX=0;entryY=0.5;entryDx=0;entryDy=0;entryPerimeter=0;" parent="1" source="UnAOihgvKj4AW0j9NJzb-21" target="UnAOihgvKj4AW0j9NJzb-9" edge="1">
          <mxGeometry relative="1" as="geometry" />
        </mxCell>
        <mxCell id="UnAOihgvKj4AW0j9NJzb-32" value="LAN 1" style="text;strokeColor=none;fillColor=none;html=1;fontSize=24;fontStyle=1;verticalAlign=middle;align=center;" parent="1" vertex="1">
          <mxGeometry x="179.25" y="-1020" width="100" height="40" as="geometry" />
        </mxCell>
        <mxCell id="UnAOihgvKj4AW0j9NJzb-34" value="" style="ellipse;shape=cloud;whiteSpace=wrap;html=1;align=center;shadow=0;fillColor=none;strokeColor=#FF00FF;" parent="1" vertex="1">
          <mxGeometry x="339" y="-782" width="120" height="80" as="geometry" />
        </mxCell>
        <mxCell id="UnAOihgvKj4AW0j9NJzb-35" value="" style="sketch=0;points=[[0.5,0,0],[1,0.5,0],[0.5,1,0],[0,0.5,0],[0.145,0.145,0],[0.8555,0.145,0],[0.855,0.8555,0],[0.145,0.855,0]];verticalLabelPosition=bottom;html=1;verticalAlign=top;aspect=fixed;align=center;pointerEvents=1;shape=mxgraph.cisco19.rect;prIcon=router;fillColor=none;strokeColor=light-dark(#FFFFFF,#FFFFFF);strokeWidth=2;" parent="1" vertex="1">
          <mxGeometry x="369" y="-752" width="20" height="20" as="geometry" />
        </mxCell>
        <UserObject label="Provedor Local" placeholders="1" name="Variable" id="UnAOihgvKj4AW0j9NJzb-36">
          <mxCell style="text;html=1;strokeColor=none;fillColor=none;align=center;verticalAlign=middle;whiteSpace=wrap;overflow=hidden;" parent="1" vertex="1">
            <mxGeometry x="419.75" y="-792" width="80" height="30" as="geometry" />
          </mxCell>
        </UserObject>
        <mxCell id="UnAOihgvKj4AW0j9NJzb-37" value="" style="sketch=0;points=[[0.5,0,0],[1,0.5,0],[0.5,1,0],[0,0.5,0],[0.145,0.145,0],[0.8555,0.145,0],[0.855,0.8555,0],[0.145,0.855,0]];verticalLabelPosition=bottom;html=1;verticalAlign=top;aspect=fixed;align=center;pointerEvents=1;shape=mxgraph.cisco19.rect;prIcon=router;fillColor=none;strokeColor=light-dark(#FFFFFF,#FFFFFF);strokeWidth=2;" parent="1" vertex="1">
          <mxGeometry x="413" y="-752" width="20" height="20" as="geometry" />
        </mxCell>
        <mxCell id="UnAOihgvKj4AW0j9NJzb-39" style="edgeStyle=orthogonalEdgeStyle;rounded=0;orthogonalLoop=1;jettySize=auto;html=1;strokeColor=light-dark(#FFFFFF,#FFFFFF);exitX=0;exitY=0.5;exitDx=0;exitDy=0;exitPerimeter=0;fillColor=#1ba1e2;" parent="1" source="UnAOihgvKj4AW0j9NJzb-37" target="UnAOihgvKj4AW0j9NJzb-35" edge="1">
          <mxGeometry relative="1" as="geometry" />
        </mxCell>
        <mxCell id="UnAOihgvKj4AW0j9NJzb-41" value="" style="ellipse;shape=cloud;whiteSpace=wrap;html=1;align=center;shadow=0;fillColor=none;strokeColor=#FF00FF;" parent="1" vertex="1">
          <mxGeometry x="499.75" y="-782" width="120" height="80" as="geometry" />
        </mxCell>
        <mxCell id="UnAOihgvKj4AW0j9NJzb-42" value="" style="sketch=0;points=[[0.5,0,0],[1,0.5,0],[0.5,1,0],[0,0.5,0],[0.145,0.145,0],[0.8555,0.145,0],[0.855,0.8555,0],[0.145,0.855,0]];verticalLabelPosition=bottom;html=1;verticalAlign=top;aspect=fixed;align=center;pointerEvents=1;shape=mxgraph.cisco19.rect;prIcon=router;fillColor=none;strokeColor=light-dark(#FFFFFF,#FFFFFF);strokeWidth=2;" parent="1" vertex="1">
          <mxGeometry x="549.75" y="-752" width="20" height="20" as="geometry" />
        </mxCell>
        <mxCell id="UnAOihgvKj4AW0j9NJzb-43" style="edgeStyle=orthogonalEdgeStyle;rounded=0;orthogonalLoop=1;jettySize=auto;html=1;strokeColor=light-dark(#FFFFFF,#FFFFFF);exitX=0;exitY=0.5;exitDx=0;exitDy=0;exitPerimeter=0;fillColor=#1ba1e2;" parent="1" source="UnAOihgvKj4AW0j9NJzb-42" target="UnAOihgvKj4AW0j9NJzb-37" edge="1">
          <mxGeometry relative="1" as="geometry" />
        </mxCell>
        <UserObject label="Provedor Regional" placeholders="1" name="Variable" id="UnAOihgvKj4AW0j9NJzb-44">
          <mxCell style="text;html=1;strokeColor=none;fillColor=none;align=center;verticalAlign=middle;whiteSpace=wrap;overflow=hidden;" parent="1" vertex="1">
            <mxGeometry x="593.75" y="-795" width="80" height="36" as="geometry" />
          </mxCell>
        </UserObject>
        <mxCell id="UnAOihgvKj4AW0j9NJzb-47" value="" style="ellipse;shape=cloud;whiteSpace=wrap;html=1;align=center;shadow=0;fillColor=none;strokeColor=#FF00FF;" parent="1" vertex="1">
          <mxGeometry x="499.75" y="-672" width="120" height="80" as="geometry" />
        </mxCell>
        <mxCell id="UnAOihgvKj4AW0j9NJzb-48" value="" style="sketch=0;points=[[0.5,0,0],[1,0.5,0],[0.5,1,0],[0,0.5,0],[0.145,0.145,0],[0.8555,0.145,0],[0.855,0.8555,0],[0.145,0.855,0]];verticalLabelPosition=bottom;html=1;verticalAlign=top;aspect=fixed;align=center;pointerEvents=1;shape=mxgraph.cisco19.rect;prIcon=router;fillColor=none;strokeColor=light-dark(#FFFFFF,#FFFFFF);strokeWidth=2;" parent="1" vertex="1">
          <mxGeometry x="529.75" y="-642" width="20" height="20" as="geometry" />
        </mxCell>
        <mxCell id="UnAOihgvKj4AW0j9NJzb-49" value="" style="sketch=0;points=[[0.5,0,0],[1,0.5,0],[0.5,1,0],[0,0.5,0],[0.145,0.145,0],[0.8555,0.145,0],[0.855,0.8555,0],[0.145,0.855,0]];verticalLabelPosition=bottom;html=1;verticalAlign=top;aspect=fixed;align=center;pointerEvents=1;shape=mxgraph.cisco19.rect;prIcon=router;fillColor=none;strokeColor=light-dark(#FFFFFF,#FFFFFF);strokeWidth=2;" parent="1" vertex="1">
          <mxGeometry x="573.75" y="-642" width="20" height="20" as="geometry" />
        </mxCell>
        <mxCell id="UnAOihgvKj4AW0j9NJzb-51" style="edgeStyle=orthogonalEdgeStyle;rounded=0;orthogonalLoop=1;jettySize=auto;html=1;strokeColor=light-dark(#FFFFFF,#FFFFFF);exitX=1;exitY=0.5;exitDx=0;exitDy=0;exitPerimeter=0;fillColor=#1ba1e2;" parent="1" source="UnAOihgvKj4AW0j9NJzb-48" target="UnAOihgvKj4AW0j9NJzb-49" edge="1">
          <mxGeometry relative="1" as="geometry" />
        </mxCell>
        <mxCell id="UnAOihgvKj4AW0j9NJzb-52" style="edgeStyle=orthogonalEdgeStyle;rounded=0;orthogonalLoop=1;jettySize=auto;html=1;strokeColor=light-dark(#FFFFFF,#FFFFFF);exitX=0.5;exitY=0;exitDx=0;exitDy=0;exitPerimeter=0;fillColor=#1ba1e2;" parent="1" source="UnAOihgvKj4AW0j9NJzb-49" target="UnAOihgvKj4AW0j9NJzb-42" edge="1">
          <mxGeometry relative="1" as="geometry">
            <Array as="points">
              <mxPoint x="584" y="-712" />
              <mxPoint x="584" y="-742" />
            </Array>
          </mxGeometry>
        </mxCell>
        <mxCell id="UnAOihgvKj4AW0j9NJzb-53" value="" style="html=1;verticalLabelPosition=bottom;labelBackgroundColor=#ffffff;verticalAlign=top;shadow=0;dashed=0;strokeWidth=2;shape=mxgraph.ios7.misc.circle;strokeColor=#222222;fillColor=none;" parent="1" vertex="1">
          <mxGeometry x="327.09" y="-682" width="112.8" height="110" as="geometry" />
        </mxCell>
        <mxCell id="UnAOihgvKj4AW0j9NJzb-55" value="" style="html=1;verticalLabelPosition=bottom;labelBackgroundColor=#ffffff;verticalAlign=top;shadow=0;dashed=0;strokeWidth=2;shape=mxgraph.ios7.misc.circle;strokeColor=#1E67FF;fillColor=none;" parent="1" vertex="1">
          <mxGeometry x="350.03" y="-672" width="40.75" height="40.75" as="geometry" />
        </mxCell>
        <mxCell id="UnAOihgvKj4AW0j9NJzb-56" value="" style="image;points=[];aspect=fixed;html=1;align=center;shadow=0;dashed=0;image=img/lib/allied_telesis/computer_and_terminals/Personal_Computer.svg;" parent="1" vertex="1">
          <mxGeometry x="359.34" y="-666.63" width="22.13" height="30" as="geometry" />
        </mxCell>
        <mxCell id="UnAOihgvKj4AW0j9NJzb-59" value="" style="sketch=0;points=[[0.5,0,0],[1,0.5,0],[0.5,1,0],[0,0.5,0],[0.145,0.145,0],[0.8555,0.145,0],[0.855,0.8555,0],[0.145,0.855,0]];verticalLabelPosition=bottom;html=1;verticalAlign=top;aspect=fixed;align=center;pointerEvents=1;shape=mxgraph.cisco19.rect;prIcon=router;fillColor=none;strokeColor=#FF0000;strokeWidth=2;" parent="1" vertex="1">
          <mxGeometry x="411" y="-642" width="20" height="20" as="geometry" />
        </mxCell>
        <mxCell id="UnAOihgvKj4AW0j9NJzb-61" value="" style="html=1;verticalLabelPosition=bottom;labelBackgroundColor=#ffffff;verticalAlign=top;shadow=0;dashed=0;strokeWidth=2;shape=mxgraph.ios7.misc.circle;strokeColor=#1E67FF;fillColor=none;" parent="1" vertex="1">
          <mxGeometry x="347.9" y="-622" width="45" height="45" as="geometry" />
        </mxCell>
        <mxCell id="UnAOihgvKj4AW0j9NJzb-62" value="" style="image;points=[];aspect=fixed;html=1;align=center;shadow=0;dashed=0;image=img/lib/allied_telesis/computer_and_terminals/Server_Desktop.svg;" parent="1" vertex="1">
          <mxGeometry x="354.63" y="-619.5" width="31.55" height="40" as="geometry" />
        </mxCell>
        <mxCell id="UnAOihgvKj4AW0j9NJzb-63" style="edgeStyle=orthogonalEdgeStyle;rounded=0;orthogonalLoop=1;jettySize=auto;html=1;strokeColor=light-dark(#FFFFFF,#FFFFFF);exitX=1;exitY=0.5;exitDx=0;exitDy=0;exitPerimeter=0;fillColor=#1ba1e2;" parent="1" source="UnAOihgvKj4AW0j9NJzb-59" target="UnAOihgvKj4AW0j9NJzb-48" edge="1">
          <mxGeometry relative="1" as="geometry" />
        </mxCell>
        <mxCell id="UnAOihgvKj4AW0j9NJzb-65" style="edgeStyle=orthogonalEdgeStyle;rounded=0;orthogonalLoop=1;jettySize=auto;html=1;entryX=1;entryY=0.5;entryDx=0;entryDy=0;entryPerimeter=0;exitX=1;exitY=0.5;exitDx=0;exitDy=0;exitPerimeter=0;fillColor=#1ba1e2;strokeColor=default;" parent="1" source="UnAOihgvKj4AW0j9NJzb-55" edge="1">
          <mxGeometry relative="1" as="geometry">
            <Array as="points">
              <mxPoint x="419" y="-652" />
            </Array>
            <mxPoint x="419" y="-642" as="targetPoint" />
          </mxGeometry>
        </mxCell>
        <mxCell id="UnAOihgvKj4AW0j9NJzb-66" style="edgeStyle=orthogonalEdgeStyle;rounded=0;orthogonalLoop=1;jettySize=auto;html=1;entryX=1;entryY=0.5;entryDx=0;entryDy=0;entryPerimeter=0;exitX=1;exitY=0.5;exitDx=0;exitDy=0;exitPerimeter=0;" parent="1" source="UnAOihgvKj4AW0j9NJzb-61" edge="1">
          <mxGeometry relative="1" as="geometry">
            <Array as="points">
              <mxPoint x="419" y="-599" />
            </Array>
            <mxPoint x="419" y="-622" as="targetPoint" />
          </mxGeometry>
        </mxCell>
        <mxCell id="UnAOihgvKj4AW0j9NJzb-67" value="LAN 2" style="text;strokeColor=none;fillColor=none;html=1;fontSize=24;fontStyle=1;verticalAlign=middle;align=center;" parent="1" vertex="1">
          <mxGeometry x="224" y="-592" width="100" height="40" as="geometry" />
        </mxCell>
        <UserObject label="Provedor Local" placeholders="1" name="Variable" id="UnAOihgvKj4AW0j9NJzb-68">
          <mxCell style="text;html=1;strokeColor=none;fillColor=none;align=center;verticalAlign=middle;whiteSpace=wrap;overflow=hidden;" parent="1" vertex="1">
            <mxGeometry x="593.75" y="-676" width="80" height="30" as="geometry" />
          </mxCell>
        </UserObject>
        <mxCell id="UnAOihgvKj4AW0j9NJzb-76" value="&lt;span&gt;&lt;font data-darkreader-inline-color=&quot;&quot; style=&quot;--darkreader-inline-color: var(--darkreader-text-5e9cff, #56a6f2); color: rgb(30, 103, 255);&quot;&gt;1&lt;/font&gt;&lt;/span&gt;" style="strokeWidth=1;html=1;shape=mxgraph.flowchart.start_2;whiteSpace=wrap;fillColor=none;strokeColor=#1E67FF;" parent="1" vertex="1">
          <mxGeometry x="389" y="-676" width="17" height="17" as="geometry" />
        </mxCell>
        <mxCell id="UnAOihgvKj4AW0j9NJzb-77" value="&lt;font color=&quot;#008f00&quot;&gt;7&lt;/font&gt;" style="strokeWidth=1;html=1;shape=mxgraph.flowchart.start_2;whiteSpace=wrap;fillColor=none;strokeColor=#00FF00;" parent="1" vertex="1">
          <mxGeometry x="475.87" y="-1014.5" width="17" height="17" as="geometry" />
        </mxCell>
        <mxCell id="UnAOihgvKj4AW0j9NJzb-78" value="&lt;font style=&quot;--darkreader-inline-color: var(--darkreader-text-5f5700, #c0bbb5); color: rgb(206, 197, 19);&quot; data-darkreader-inline-color=&quot;&quot;&gt;2&lt;/font&gt;" style="strokeWidth=1;html=1;shape=mxgraph.flowchart.start_2;whiteSpace=wrap;fillColor=none;strokeColor=#CEC513;" parent="1" vertex="1">
          <mxGeometry x="386.9" y="-879.62" width="17" height="17" as="geometry" />
        </mxCell>
        <mxCell id="UnAOihgvKj4AW0j9NJzb-79" value="&lt;font style=&quot;--darkreader-inline-color: var(--darkreader-text-ff70ff, #f263f2); color: rgb(255, 0, 255);&quot; data-darkreader-inline-color=&quot;&quot;&gt;3&lt;/font&gt;" style="strokeWidth=1;html=1;shape=mxgraph.flowchart.start_2;whiteSpace=wrap;fillColor=none;strokeColor=#FF00FF;" parent="1" vertex="1">
          <mxGeometry x="494.87" y="-611" width="17" height="17" as="geometry" />
        </mxCell>
        <mxCell id="UnAOihgvKj4AW0j9NJzb-80" value="&lt;font style=&quot;--darkreader-inline-color: var(--darkreader-text-ce6100, #f29039); color: rgb(255, 128, 0);&quot; data-darkreader-inline-color=&quot;&quot;&gt;4&lt;/font&gt;" style="strokeWidth=1;html=1;shape=mxgraph.flowchart.start_2;whiteSpace=wrap;fillColor=none;strokeColor=#FF8000;" parent="1" vertex="1">
          <mxGeometry x="559" y="-693" width="17" height="17" as="geometry" />
        </mxCell>
        <mxCell id="UnAOihgvKj4AW0j9NJzb-81" value="&lt;span&gt;&lt;font data-darkreader-inline-color=&quot;&quot; style=&quot;--darkreader-inline-color: var(--darkreader-text-ff9090, #f27878); color: rgb(255, 0, 0);&quot;&gt;2&lt;/font&gt;&lt;/span&gt;" style="strokeWidth=1;html=1;shape=mxgraph.flowchart.start_2;whiteSpace=wrap;fillColor=none;strokeColor=#FF0000;" parent="1" vertex="1">
          <mxGeometry x="398" y="-622" width="17" height="17" as="geometry" />
        </mxCell>
        <mxCell id="UnAOihgvKj4AW0j9NJzb-82" value="&lt;span&gt;&lt;font data-darkreader-inline-color=&quot;&quot; style=&quot;--darkreader-inline-color: var(--darkreader-text-006c00, #7af27a); color: light-dark(rgb(10, 246, 255), rgb(0, 111, 119));&quot;&gt;5&lt;/font&gt;&lt;/span&gt;" style="strokeWidth=1;html=1;shape=mxgraph.flowchart.start_2;whiteSpace=wrap;fillColor=none;strokeColor=light-dark(#0AF6FF,#006F77);" parent="1" vertex="1">
          <mxGeometry x="386.18" y="-732" width="17" height="17" as="geometry" />
        </mxCell>
        <mxCell id="UnAOihgvKj4AW0j9NJzb-118" value="" style="shape=tableRow;horizontal=0;startSize=0;swimlaneHead=0;swimlaneBody=0;top=0;left=0;bottom=0;right=0;collapsible=0;dropTarget=0;fillColor=none;points=[[0,0.5],[1,0.5]];portConstraint=eastwest;strokeColor=inherit;fontSize=16;" parent="1" vertex="1">
          <mxGeometry x="670" y="120" width="180" height="30" as="geometry" />
        </mxCell>
        <mxCell id="UnAOihgvKj4AW0j9NJzb-121" value="" style="shape=tableRow;horizontal=0;startSize=0;swimlaneHead=0;swimlaneBody=0;top=0;left=0;bottom=0;right=0;collapsible=0;dropTarget=0;fillColor=none;points=[[0,0.5],[1,0.5]];portConstraint=eastwest;strokeColor=inherit;fontSize=16;" parent="1" vertex="1">
          <mxGeometry x="670" y="150" width="180" height="30" as="geometry" />
        </mxCell>
        <mxCell id="UnAOihgvKj4AW0j9NJzb-124" value="" style="shape=tableRow;horizontal=0;startSize=0;swimlaneHead=0;swimlaneBody=0;top=0;left=0;bottom=0;right=0;collapsible=0;dropTarget=0;fillColor=none;points=[[0,0.5],[1,0.5]];portConstraint=eastwest;strokeColor=inherit;fontSize=16;" parent="1" vertex="1">
          <mxGeometry x="670" y="180" width="180" height="30" as="geometry" />
        </mxCell>
        <mxCell id="UnAOihgvKj4AW0j9NJzb-127" value="" style="shape=tableRow;horizontal=0;startSize=0;swimlaneHead=0;swimlaneBody=0;top=0;left=0;bottom=0;right=0;collapsible=0;dropTarget=0;fillColor=none;points=[[0,0.5],[1,0.5]];portConstraint=eastwest;strokeColor=inherit;fontSize=16;" parent="1" vertex="1">
          <mxGeometry x="670" y="210" width="230" height="30" as="geometry" />
        </mxCell>
        <mxCell id="bFiKVZy4aNZ3oBnheSuF-3" value="&lt;font style=&quot;font-size: 36px;&quot;&gt;Projeto de Redes com Tipo de Servidor v1.1&lt;/font&gt;" style="text;html=1;align=center;verticalAlign=middle;whiteSpace=wrap;rounded=0;" parent="1" vertex="1">
          <mxGeometry x="103.35999999999999" y="-1130" width="597.29" height="70" as="geometry" />
        </mxCell>
        <mxCell id="bFiKVZy4aNZ3oBnheSuF-14" value="" style="html=1;verticalLabelPosition=bottom;labelBackgroundColor=#ffffff;verticalAlign=top;shadow=0;dashed=0;strokeWidth=2;shape=mxgraph.ios7.misc.circle;strokeColor=#00FF00;fillColor=none;" parent="1" vertex="1">
          <mxGeometry x="379.90999999999997" y="-1000" width="45" height="45" as="geometry" />
        </mxCell>
        <mxCell id="bFiKVZy4aNZ3oBnheSuF-15" value="" style="image;points=[];aspect=fixed;html=1;align=center;shadow=0;dashed=0;image=img/lib/allied_telesis/computer_and_terminals/Server_Desktop.svg;" parent="1" vertex="1">
          <mxGeometry x="386.64" y="-997.5" width="31.55" height="40" as="geometry" />
        </mxCell>
        <mxCell id="bFiKVZy4aNZ3oBnheSuF-16" value="" style="html=1;verticalLabelPosition=bottom;labelBackgroundColor=#ffffff;verticalAlign=top;shadow=0;dashed=0;strokeWidth=2;shape=mxgraph.ios7.misc.circle;strokeColor=#00FF00;fillColor=none;" parent="1" vertex="1">
          <mxGeometry x="430.86999999999995" y="-1000" width="45" height="45" as="geometry" />
        </mxCell>
        <mxCell id="bFiKVZy4aNZ3oBnheSuF-17" value="" style="image;points=[];aspect=fixed;html=1;align=center;shadow=0;dashed=0;image=img/lib/allied_telesis/computer_and_terminals/Server_Desktop.svg;" parent="1" vertex="1">
          <mxGeometry x="437.59999999999997" y="-997.5" width="31.55" height="40" as="geometry" />
        </mxCell>
        <mxCell id="bFiKVZy4aNZ3oBnheSuF-18" value="" style="html=1;verticalLabelPosition=bottom;labelBackgroundColor=#ffffff;verticalAlign=top;shadow=0;dashed=0;strokeWidth=2;shape=mxgraph.ios7.misc.circle;strokeColor=#00FF00;fillColor=none;" parent="1" vertex="1">
          <mxGeometry x="281.14" y="-1000" width="45" height="45" as="geometry" />
        </mxCell>
        <mxCell id="bFiKVZy4aNZ3oBnheSuF-19" value="" style="image;points=[];aspect=fixed;html=1;align=center;shadow=0;dashed=0;image=img/lib/allied_telesis/computer_and_terminals/Server_Desktop.svg;" parent="1" vertex="1">
          <mxGeometry x="287.87" y="-997.5" width="31.55" height="40" as="geometry" />
        </mxCell>
        <mxCell id="bFiKVZy4aNZ3oBnheSuF-25" style="edgeStyle=orthogonalEdgeStyle;rounded=0;orthogonalLoop=1;jettySize=auto;html=1;exitX=0.5;exitY=1;exitDx=0;exitDy=0;exitPerimeter=0;entryX=0.5;entryY=0;entryDx=0;entryDy=0;entryPerimeter=0;" parent="1" source="bFiKVZy4aNZ3oBnheSuF-14" target="UnAOihgvKj4AW0j9NJzb-9" edge="1">
          <mxGeometry relative="1" as="geometry">
            <Array as="points">
              <mxPoint x="402" y="-940" />
              <mxPoint x="380" y="-940" />
            </Array>
          </mxGeometry>
        </mxCell>
        <mxCell id="0KpMT5jF71I062KQcm8q-2" style="edgeStyle=orthogonalEdgeStyle;rounded=0;orthogonalLoop=1;jettySize=auto;html=1;entryX=0.5;entryY=0;entryDx=0;entryDy=0;entryPerimeter=0;" parent="1" source="UnAOihgvKj4AW0j9NJzb-24" target="UnAOihgvKj4AW0j9NJzb-9" edge="1">
          <mxGeometry relative="1" as="geometry">
            <Array as="points">
              <mxPoint x="353" y="-940" />
              <mxPoint x="380" y="-940" />
            </Array>
          </mxGeometry>
        </mxCell>
        <mxCell id="0KpMT5jF71I062KQcm8q-4" style="edgeStyle=orthogonalEdgeStyle;rounded=0;orthogonalLoop=1;jettySize=auto;html=1;entryX=0.5;entryY=0;entryDx=0;entryDy=0;entryPerimeter=0;" parent="1" source="bFiKVZy4aNZ3oBnheSuF-16" target="UnAOihgvKj4AW0j9NJzb-9" edge="1">
          <mxGeometry relative="1" as="geometry">
            <Array as="points">
              <mxPoint x="453" y="-940" />
              <mxPoint x="380" y="-940" />
            </Array>
          </mxGeometry>
        </mxCell>
        <mxCell id="0KpMT5jF71I062KQcm8q-3" style="edgeStyle=orthogonalEdgeStyle;rounded=0;orthogonalLoop=1;jettySize=auto;html=1;entryX=0.5;entryY=0;entryDx=0;entryDy=0;entryPerimeter=0;fillColor=#1ba1e2;strokeColor=light-dark(#FFFFFF,#FFFFFF);" parent="1" source="bFiKVZy4aNZ3oBnheSuF-18" target="UnAOihgvKj4AW0j9NJzb-9" edge="1">
          <mxGeometry relative="1" as="geometry">
            <Array as="points">
              <mxPoint x="304" y="-940" />
              <mxPoint x="380" y="-940" />
            </Array>
          </mxGeometry>
        </mxCell>
        <mxCell id="0KpMT5jF71I062KQcm8q-5" value="&lt;font color=&quot;#008f00&quot;&gt;A&lt;/font&gt;" style="strokeWidth=1;html=1;shape=mxgraph.flowchart.start_2;whiteSpace=wrap;fillColor=none;strokeColor=#00FF00;" parent="1" vertex="1">
          <mxGeometry x="281.14" y="-1020" width="17" height="17" as="geometry" />
        </mxCell>
        <mxCell id="0KpMT5jF71I062KQcm8q-6" value="&lt;font color=&quot;#008f00&quot;&gt;B&lt;/font&gt;" style="strokeWidth=1;html=1;shape=mxgraph.flowchart.start_2;whiteSpace=wrap;fillColor=none;strokeColor=#00FF00;" parent="1" vertex="1">
          <mxGeometry x="331.03" y="-1020" width="17" height="17" as="geometry" />
        </mxCell>
        <mxCell id="0KpMT5jF71I062KQcm8q-7" value="&lt;font color=&quot;#008f00&quot;&gt;C&lt;/font&gt;" style="strokeWidth=1;html=1;shape=mxgraph.flowchart.start_2;whiteSpace=wrap;fillColor=none;strokeColor=#00FF00;" parent="1" vertex="1">
          <mxGeometry x="379.90999999999997" y="-1020" width="17" height="17" as="geometry" />
        </mxCell>
        <mxCell id="0KpMT5jF71I062KQcm8q-8" value="&lt;font color=&quot;#008f00&quot;&gt;D&lt;/font&gt;" style="strokeWidth=1;html=1;shape=mxgraph.flowchart.start_2;whiteSpace=wrap;fillColor=none;strokeColor=#00FF00;" parent="1" vertex="1">
          <mxGeometry x="430.86999999999995" y="-1020" width="17" height="17" as="geometry" />
        </mxCell>
        <mxCell id="QPOofqviofkZdwVjssgO-5" value="" style="edgeStyle=orthogonalEdgeStyle;rounded=0;orthogonalLoop=1;jettySize=auto;html=1;strokeColor=light-dark(#FFFFFF,#FFFFFF);exitX=0.5;exitY=0;exitDx=0;exitDy=0;exitPerimeter=0;fillColor=#1ba1e2;entryX=0.5;entryY=1;entryDx=0;entryDy=0;" parent="1" source="UnAOihgvKj4AW0j9NJzb-35" target="VmbwKwDTw6VMXUkC-bAi-1" edge="1">
          <mxGeometry relative="1" as="geometry">
            <Array as="points" />
            <mxPoint x="360" y="-780" as="sourcePoint" />
            <mxPoint x="380" y="-880" as="targetPoint" />
          </mxGeometry>
        </mxCell>
        <mxCell id="QPOofqviofkZdwVjssgO-1" value="" style="image;aspect=fixed;perimeter=ellipsePerimeter;html=1;align=center;shadow=0;dashed=0;spacingTop=3;image=img/lib/active_directory/firewall.svg;" parent="1" vertex="1">
          <mxGeometry x="370" y="-840" width="18.3" height="30" as="geometry" />
        </mxCell>
        <mxCell id="QPOofqviofkZdwVjssgO-7" style="edgeStyle=orthogonalEdgeStyle;rounded=0;orthogonalLoop=1;jettySize=auto;html=1;exitX=0.5;exitY=0;exitDx=0;exitDy=0;entryX=0.5;entryY=1;entryDx=0;entryDy=0;entryPerimeter=0;" parent="1" source="QPOofqviofkZdwVjssgO-1" target="UnAOihgvKj4AW0j9NJzb-9" edge="1">
          <mxGeometry relative="1" as="geometry" />
        </mxCell>
        <mxCell id="VmbwKwDTw6VMXUkC-bAi-1" value="Firewall" style="text;html=1;align=center;verticalAlign=middle;whiteSpace=wrap;rounded=0;" vertex="1" parent="1">
          <mxGeometry x="350" y="-810" width="60" height="20" as="geometry" />
        </mxCell>
      </root>
    </mxGraphModel>
  </diagram>
</mxfile>
